<svg width="140" height="20" viewBox="0 0 140 20" fill="none" xmlns="http://www.w3.org/2000/svg">
<path d="M24.64 16V7.52H25.872L25.92 9.408L25.76 9.376C25.856 8.74667 26.0587 8.25067 26.368 7.888C26.688 7.51467 27.0933 7.328 27.584 7.328C28.0853 7.328 28.4693 7.50933 28.736 7.872C29.0133 8.23467 29.184 8.768 29.248 9.472H29.088C29.184 8.81067 29.3973 8.288 29.728 7.904C30.0693 7.52 30.496 7.328 31.008 7.328C31.6907 7.328 32.1867 7.56267 32.496 8.032C32.8053 8.50133 32.96 9.28 32.96 10.368V16H31.616V10.56C31.616 9.80267 31.536 9.27467 31.376 8.976C31.216 8.66667 30.9653 8.512 30.624 8.512C30.4 8.512 30.2027 8.58667 30.032 8.736C29.8613 8.87467 29.7227 9.09867 29.616 9.408C29.52 9.71733 29.472 10.112 29.472 10.592V16H28.128V10.56C28.128 9.83467 28.048 9.312 27.888 8.992C27.7387 8.672 27.488 8.512 27.136 8.512C26.912 8.512 26.7147 8.58667 26.544 8.736C26.3733 8.87467 26.2347 9.09867 26.128 9.408C26.032 9.71733 25.984 10.112 25.984 10.592V16H24.64ZM38.3938 16.192C37.6151 16.192 36.9324 16.0107 36.3458 15.648C35.7698 15.2853 35.3218 14.7733 35.0018 14.112C34.6818 13.44 34.5218 12.656 34.5218 11.76C34.5218 10.8533 34.6818 10.0693 35.0018 9.408C35.3218 8.74667 35.7698 8.23467 36.3458 7.872C36.9324 7.50933 37.6151 7.328 38.3938 7.328C39.1724 7.328 39.8498 7.50933 40.4258 7.872C41.0124 8.23467 41.4658 8.74667 41.7858 9.408C42.1058 10.0693 42.2658 10.8533 42.2658 11.76C42.2658 12.656 42.1058 13.44 41.7858 14.112C41.4658 14.7733 41.0124 15.2853 40.4258 15.648C39.8498 16.0107 39.1724 16.192 38.3938 16.192ZM38.3938 14.912C39.1724 14.912 39.7751 14.6347 40.2018 14.08C40.6391 13.5147 40.8578 12.7413 40.8578 11.76C40.8578 10.7787 40.6391 10.0107 40.2018 9.456C39.7751 8.89067 39.1724 8.608 38.3938 8.608C37.6151 8.608 37.0071 8.89067 36.5698 9.456C36.1431 10.0107 35.9298 10.7787 35.9298 11.76C35.9298 12.7413 36.1431 13.5147 36.5698 14.08C37.0071 14.6347 37.6151 14.912 38.3938 14.912ZM47.1395 16L43.9875 7.52H45.4595L47.9875 14.624L50.5155 7.52H51.9875L48.8355 16H47.1395ZM57.4693 16V7.52H58.8133V16H57.4693ZM54.0613 16V14.816H61.7413V16H54.0613ZM54.2213 8.704V7.52H58.8133V8.704H54.2213ZM57.3413 6.192V4.624H58.7493V6.192H57.3413ZM63.719 16V7.52H64.951L64.999 9.68L64.839 9.536C64.9457 9.03467 65.1377 8.624 65.415 8.304C65.703 7.97333 66.0443 7.728 66.439 7.568C66.8337 7.408 67.2497 7.328 67.687 7.328C68.3377 7.328 68.8763 7.472 69.303 7.76C69.7403 8.048 70.071 8.43733 70.295 8.928C70.519 9.408 70.631 9.94667 70.631 10.544V16H69.287V10.928C69.287 10.1387 69.1323 9.54133 68.823 9.136C68.5137 8.72 68.039 8.512 67.399 8.512C66.9617 8.512 66.567 8.608 66.215 8.8C65.863 8.98133 65.5803 9.25333 65.367 9.616C65.1643 9.968 65.063 10.4053 65.063 10.928V16H63.719ZM76.7208 18.592C76.1128 18.592 75.5634 18.4907 75.0728 18.288C74.5821 18.0853 74.1714 17.7973 73.8408 17.424C73.5101 17.0507 73.2861 16.6187 73.1688 16.128L74.5768 16.032C74.7048 16.4267 74.9288 16.736 75.2488 16.96C75.5794 17.1947 76.0701 17.312 76.7208 17.312C77.4888 17.312 78.0754 17.1573 78.4808 16.848C78.8968 16.5387 79.1048 16.0747 79.1048 15.456V14.08C78.9021 14.528 78.5768 14.8853 78.1288 15.152C77.6808 15.4187 77.1794 15.552 76.6248 15.552C75.9101 15.552 75.2701 15.376 74.7048 15.024C74.1501 14.672 73.7128 14.1867 73.3928 13.568C73.0834 12.9493 72.9288 12.24 72.9288 11.44C72.9288 10.6293 73.0834 9.92 73.3928 9.312C73.7021 8.69333 74.1288 8.208 74.6728 7.856C75.2274 7.504 75.8568 7.328 76.5608 7.328C77.1581 7.328 77.6914 7.46667 78.1608 7.744C78.6408 8.02133 78.9768 8.39467 79.1688 8.864V7.52H80.4488V15.424C80.4488 16.0853 80.2994 16.6507 80.0008 17.12C79.7021 17.6 79.2754 17.9627 78.7208 18.208C78.1661 18.464 77.4994 18.592 76.7208 18.592ZM76.6888 14.272C77.4141 14.272 77.9954 14.0213 78.4328 13.52C78.8701 13.008 79.0941 12.3147 79.1048 11.44C79.1154 10.8533 79.0194 10.352 78.8168 9.936C78.6248 9.50933 78.3421 9.184 77.9688 8.96C77.6061 8.72533 77.1794 8.608 76.6888 8.608C75.9421 8.608 75.3608 8.864 74.9448 9.376C74.5394 9.87733 74.3368 10.5653 74.3368 11.44C74.3368 12.3147 74.5448 13.008 74.9608 13.52C75.3874 14.0213 75.9634 14.272 76.6888 14.272ZM95.8443 16V7.52H97.1883V16H95.8443ZM92.4363 16V14.816H100.116V16H92.4363ZM92.5963 8.704V7.52H97.1883V8.704H92.5963ZM95.7163 6.192V4.624H97.1243V6.192H95.7163ZM105.774 16.192C104.985 16.192 104.297 16.0107 103.71 15.648C103.123 15.2853 102.67 14.7733 102.35 14.112C102.03 13.44 101.87 12.656 101.87 11.76C101.87 10.864 102.03 10.0853 102.35 9.424C102.67 8.76267 103.123 8.25067 103.71 7.888C104.297 7.51467 104.985 7.328 105.774 7.328C106.403 7.328 106.963 7.44533 107.454 7.68C107.945 7.904 108.35 8.23467 108.67 8.672C108.99 9.10933 109.209 9.64267 109.326 10.272L107.918 10.368C107.79 9.80267 107.534 9.37067 107.15 9.072C106.777 8.76267 106.318 8.608 105.774 8.608C104.995 8.608 104.382 8.89067 103.934 9.456C103.497 10.0107 103.278 10.7787 103.278 11.76C103.278 12.7413 103.497 13.5147 103.934 14.08C104.382 14.6347 104.995 14.912 105.774 14.912C106.318 14.912 106.787 14.752 107.182 14.432C107.587 14.112 107.854 13.632 107.982 12.992L109.39 13.088C109.273 13.7173 109.049 14.2667 108.718 14.736C108.387 15.1947 107.971 15.552 107.47 15.808C106.969 16.064 106.403 16.192 105.774 16.192ZM115.144 16.192C114.365 16.192 113.682 16.0107 113.096 15.648C112.52 15.2853 112.072 14.7733 111.752 14.112C111.432 13.44 111.272 12.656 111.272 11.76C111.272 10.8533 111.432 10.0693 111.752 9.408C112.072 8.74667 112.52 8.23467 113.096 7.872C113.682 7.50933 114.365 7.328 115.144 7.328C115.922 7.328 116.6 7.50933 117.176 7.872C117.762 8.23467 118.216 8.74667 118.536 9.408C118.856 10.0693 119.016 10.8533 119.016 11.76C119.016 12.656 118.856 13.44 118.536 14.112C118.216 14.7733 117.762 15.2853 117.176 15.648C116.6 16.0107 115.922 16.192 115.144 16.192ZM115.144 14.912C115.922 14.912 116.525 14.6347 116.952 14.08C117.389 13.5147 117.608 12.7413 117.608 11.76C117.608 10.7787 117.389 10.0107 116.952 9.456C116.525 8.89067 115.922 8.608 115.144 8.608C114.365 8.608 113.757 8.89067 113.32 9.456C112.893 10.0107 112.68 10.7787 112.68 11.76C112.68 12.7413 112.893 13.5147 113.32 14.08C113.757 14.6347 114.365 14.912 115.144 14.912ZM121.282 16V7.52H122.514L122.562 9.68L122.402 9.536C122.508 9.03467 122.7 8.624 122.978 8.304C123.266 7.97333 123.607 7.728 124.002 7.568C124.396 7.408 124.812 7.328 125.25 7.328C125.9 7.328 126.439 7.472 126.866 7.76C127.303 8.048 127.634 8.43733 127.858 8.928C128.082 9.408 128.194 9.94667 128.194 10.544V16H126.85V10.928C126.85 10.1387 126.695 9.54133 126.386 9.136C126.076 8.72 125.602 8.512 124.962 8.512C124.524 8.512 124.13 8.608 123.778 8.8C123.426 8.98133 123.143 9.25333 122.93 9.616C122.727 9.968 122.626 10.4053 122.626 10.928V16H121.282ZM134.491 16.192C133.755 16.192 133.121 16.064 132.587 15.808C132.054 15.552 131.633 15.2107 131.323 14.784C131.025 14.3467 130.854 13.8613 130.811 13.328L132.219 13.232C132.305 13.7547 132.534 14.1653 132.907 14.464C133.291 14.7627 133.819 14.912 134.491 14.912C135.121 14.912 135.606 14.8213 135.947 14.64C136.299 14.4587 136.475 14.176 136.475 13.792C136.475 13.5467 136.417 13.344 136.299 13.184C136.182 13.024 135.963 12.8907 135.643 12.784C135.323 12.6667 134.854 12.5547 134.235 12.448C133.414 12.2987 132.769 12.1173 132.299 11.904C131.841 11.68 131.515 11.4027 131.323 11.072C131.131 10.7413 131.035 10.3467 131.035 9.888C131.035 9.39733 131.158 8.96 131.403 8.576C131.649 8.192 132.011 7.888 132.491 7.664C132.971 7.44 133.558 7.328 134.251 7.328C134.955 7.328 135.542 7.456 136.011 7.712C136.491 7.95733 136.87 8.288 137.147 8.704C137.425 9.10933 137.606 9.55733 137.691 10.048L136.283 10.144C136.219 9.84533 136.097 9.584 135.915 9.36C135.745 9.12533 135.515 8.944 135.227 8.816C134.95 8.67733 134.619 8.608 134.235 8.608C133.617 8.608 133.158 8.73067 132.859 8.976C132.561 9.22133 132.411 9.52533 132.411 9.888C132.411 10.176 132.481 10.4053 132.619 10.576C132.758 10.7467 132.982 10.8853 133.291 10.992C133.601 11.088 134.011 11.1787 134.523 11.264C135.398 11.4027 136.075 11.584 136.555 11.808C137.035 12.0213 137.371 12.288 137.563 12.608C137.755 12.928 137.851 13.3227 137.851 13.792C137.851 14.2933 137.702 14.7253 137.403 15.088C137.115 15.44 136.715 15.712 136.203 15.904C135.702 16.096 135.131 16.192 134.491 16.192Z" fill="white"/>
<g clip-path="url(#clip0_2740_418)">
<path d="M12 7.00039L1.5 17.5004M13.125 12.2504H6.75M9.5025 15.2504C9.69982 15.2504 9.8952 15.2114 10.0774 15.1357C10.2597 15.06 10.4252 14.9491 10.5645 14.8094L15.18 10.1804C16.0244 9.33601 16.4988 8.19078 16.4988 6.99664C16.4988 5.80251 16.0244 4.65728 15.18 3.81289C14.3356 2.96851 13.1904 2.49414 11.9963 2.49414C10.8021 2.49414 9.65688 2.96851 8.8125 3.81289L4.1895 8.43589C3.90818 8.71713 3.75008 9.0986 3.75 9.49639V14.5004C3.75 14.6993 3.82902 14.8901 3.96967 15.0307C4.11032 15.1714 4.30109 15.2504 4.5 15.2504H9.5025Z" stroke="white" stroke-width="1.5" stroke-linecap="round" stroke-linejoin="round"/>
</g>
<defs>
<clipPath id="clip0_2740_418">
<rect width="18" height="18" fill="white" transform="translate(0 1)"/>
</clipPath>
</defs>
</svg>
